<?xml version="1.0" encoding="UTF-8" standalone="no"?>
<!-- Uploaded to: SVG Repo, www.svgrepo.com, Generator: SVG Repo Mixer Tools -->
<svg width="800px" height="800px" viewBox="-1.5 0 20 20" version="1.1" xmlns="http://www.w3.org/2000/svg" xmlns:xlink="http://www.w3.org/1999/xlink">
    
    <title>apple [#173]</title>
    <desc>Created with Sketch.</desc>
    <defs>

</defs>
    <g id="Page-1" stroke="none" stroke-width="1" fill="none" fill-rule="evenodd">
        <g id="Dribbble-Light-Preview" transform="matrix(1,0,0,1,-102,-7439)" fill="#131A51">
            <g id="icons" transform="translate(56,160)">
                <path d="M 57.6 7282.2 C 58.3 7281.3 58.8 7280.2 58.7 7279 C 57.6 7279 56.3 7279.7 55.6 7280.5 C 54.9 7281.3 54.3 7282.5 54.5 7283.6 C 55.6 7283.7 56.8 7283 57.6 7282.2 M 60.2 7289.6 C 60.2 7292.7 63 7293.7 63 7293.7 C 63 7293.7 62.6 7295.1 61.6 7296.5 C 60.7 7297.7 59.8 7298.9 58.4 7299 C 57 7299 56.5 7298.2 54.9 7298.2 C 53.3 7298.2 52.8 7298.9 51.5 7299 C 50.1 7299 49.1 7297.7 48.2 7296.5 C 46.4 7294 45 7289.4 46.9 7286.4 C 47.8 7284.9 49.4 7283.9 51.2 7283.9 C 52.5 7283.9 53.8 7284.8 54.6 7284.8 C 55.5 7284.8 57 7283.7 58.6 7283.8 C 59.3 7283.9 61.2 7284.1 62.5 7285.8 C 62.4 7285.9 60.2 7287.1 60.2 7289.6" id="apple-[#173]">

</path>
            </g>
        </g>
    </g>
</svg>